<?xml version="1.0" encoding="UTF-8" standalone="no"?>
<svg xmlns:rdf="http://www.w3.org/1999/02/22-rdf-syntax-ns#" xmlns="http://www.w3.org/2000/svg" height="19.981mm" width="32.628mm" version="1.1" xmlns:cc="http://creativecommons.org/ns#" xmlns:dc="http://purl.org/dc/elements/1.1/" viewBox="0 0 32.627747 19.981157">
 <defs>
  <clipPath id="clipPath7040" clipPathUnits="userSpaceOnUse">
   <path style="color-rendering:auto;text-decoration-color:#000000;color:#000000;font-variant-numeric:normal;text-orientation:mixed;shape-rendering:auto;font-variant-ligatures:normal;text-decoration-line:none;font-variant-position:normal;mix-blend-mode:normal;font-feature-settings:normal;shape-padding:0;font-variant-alternates:normal;text-indent:0;dominant-baseline:auto;font-variant-caps:normal;image-rendering:auto;white-space:normal;text-decoration-style:solid;solid-color:#000000;isolation:auto;paint-order:stroke markers fill;text-transform:none" d="m45.365 34.535v11.897h3.869v-1.6195l0.91416 1.6195h0.6506v10.164h3.9062v-3.0448c1.1333-0.05049 2.1463-0.28452 2.9042-0.92552 0.84774-0.71696 1.2361-1.836 1.2361-3.0453v-0.902c0-1.2233-0.3758-2.3462-1.232-3.0525-0.85616-0.70633-1.9852-0.92604-3.2933-0.92604h-0.675l-1.612-2.796c0.26692-0.20638 0.62391-0.2997 0.80874-0.58601 0.42301-0.65531 0.57051-1.4354 0.57051-2.2831v-0.50798c0-1.2233-0.37566-2.3467-1.2304-3.0567-0.85476-0.70993-1.9848-0.93534-3.2949-0.93534zm3.8556 3.7517c0.03721 0.0099 0.1583 0.02945 0.21446 0.02842 0.0077 0.04784 0.01963 0.13551 0.01963 0.30179v0.33021c0 0.14397-0.008 0.21097-0.01344 0.24598-0.04949-0.000067-0.17969 0.01942-0.22066 0.03101zm5.4725 10.164c0.04579 0.01297 0.18972 0.03493 0.2403 0.03359 0.0066 0.03893 0.01757 0.11929 0.01757 0.28267v0.7245c0 0.14335-0.0063 0.19751-0.0093 0.22169-0.01611-0.0059-0.19035 0.01609-0.24856 0.03256zm-24.512-13.916v11.896h4.2832c1.3063 0 2.4454-0.21732 3.3047-0.94531 0.85928-0.728 1.2207-1.8725 1.2207-3.1484 0-1.1518-0.58707-2.0131-1.3477-2.6543 0.28585-0.53477 0.44727-1.0794 0.44727-1.5 0-1.0207-0.40246-1.9859-1.125-2.6465-0.72254-0.66061-1.7206-1.002-2.8164-1.002zm3.9805 3.5625c-0.03008-0.0404 0.0078 0.01746 0.0078 0.11133 0 0.11676-0.03518 0.14878-0.01172 0.12109 0.02347-0.02768 0.11015-0.03516 0.0021-0.03516h-0.10938v-0.14453h0.09766c0.17759 0 0.04375-0.01233 0.01368-0.05273zm-0.125 3.9258h0.42774c0.51153 0 0.5951 0.10321 0.5332 0.04297-0.06189-0.06024-0.0039-0.05796-0.0039 0.3086 0 0.38623-0.06808 0.41771 0.01368 0.33008 0.08175-0.08763 0.03659 0.02148-0.51758 0.02148h-0.453zm-3.185-6.725h33.215v20.505h-33.215z" fill="#f00"/>
  </clipPath>
  <clipPath id="clipPath7044" clipPathUnits="userSpaceOnUse">
   <path style="color-rendering:auto;text-decoration-color:#000000;color:#000000;font-variant-numeric:normal;text-orientation:mixed;shape-rendering:auto;font-variant-ligatures:normal;text-decoration-line:none;font-variant-position:normal;mix-blend-mode:normal;font-feature-settings:normal;shape-padding:0;font-variant-alternates:normal;text-indent:0;dominant-baseline:auto;font-variant-caps:normal;image-rendering:auto;white-space:normal;text-decoration-style:solid;solid-color:#000000;isolation:auto;paint-order:stroke markers fill;text-transform:none" d="m45.365 34.535v11.897h3.869v-1.6195l0.91416 1.6195h0.6506v10.164h3.9062v-3.0448c1.1333-0.05049 2.1463-0.28452 2.9042-0.92552 0.84774-0.71696 1.2361-1.836 1.2361-3.0453v-0.902c0-1.2233-0.3758-2.3462-1.232-3.0525-0.85616-0.70633-1.9852-0.92604-3.2933-0.92604h-0.675l-1.612-2.796c0.26692-0.20638 0.62391-0.2997 0.80874-0.58601 0.42301-0.65531 0.57051-1.4354 0.57051-2.2831v-0.50798c0-1.2233-0.37566-2.3467-1.2304-3.0567-0.85476-0.70993-1.9848-0.93534-3.2949-0.93534zm3.8556 3.7517c0.03721 0.0099 0.1583 0.02945 0.21446 0.02842 0.0077 0.04784 0.01963 0.13551 0.01963 0.30179v0.33021c0 0.14397-0.008 0.21097-0.01344 0.24598-0.04949-0.000067-0.17969 0.01942-0.22066 0.03101zm5.4725 10.164c0.04579 0.01297 0.18972 0.03493 0.2403 0.03359 0.0066 0.03893 0.01757 0.11929 0.01757 0.28267v0.7245c0 0.14335-0.0063 0.19751-0.0093 0.22169-0.01611-0.0059-0.19035 0.01609-0.24856 0.03256zm-24.512-13.916v11.896h4.2832c1.3063 0 2.4454-0.21732 3.3047-0.94531 0.85928-0.728 1.2207-1.8725 1.2207-3.1484 0-1.1518-0.58707-2.0131-1.3477-2.6543 0.28585-0.53477 0.44727-1.0794 0.44727-1.5 0-1.0207-0.40246-1.9859-1.125-2.6465-0.72254-0.66061-1.7206-1.002-2.8164-1.002zm3.9805 3.5625c-0.03008-0.0404 0.0078 0.01746 0.0078 0.11133 0 0.11676-0.03518 0.14878-0.01172 0.12109 0.02347-0.02768 0.11015-0.03516 0.0021-0.03516h-0.10938v-0.14453h0.09766c0.17759 0 0.04375-0.01233 0.01368-0.05273zm-0.125 3.9258h0.42774c0.51153 0 0.5951 0.10321 0.5332 0.04297-0.06189-0.06024-0.0039-0.05796-0.0039 0.3086 0 0.38623-0.06808 0.41771 0.01368 0.33008 0.08175-0.08763 0.03659 0.02148-0.51758 0.02148h-0.453zm-3.185-6.725h33.215v20.505h-33.215z" fill="#f00"/>
  </clipPath>
 </defs>
 <metadata>
  <rdf:RDF>
   <cc:Work rdf:about="">
    <dc:format>image/svg+xml</dc:format>
    <dc:type rdf:resource="http://purl.org/dc/dcmitype/StillImage"/>
    <dc:title/>
   </cc:Work>
  </rdf:RDF>
 </metadata>
 <g transform="translate(4.9211e-7 -263.52)">
  <g transform="translate(-23.167 215.26)">
   <g font-size="10.583px" font-family="sans-serif" transform="translate(-15.111 1.4619)">
    <g transform="translate(7.0826 11.225)" fill="#444">
     <g aria-label="A">
      <path stroke-width=".26458px" fill="#444" d="m59.379 53.136h3.1369l0.635 2.413h0.6731l-2.5146-9.8044h-0.6985l-2.5146 9.8044h0.6604zm1.6002-6.4643 1.397 5.8674h-2.8448l1.4351-5.8674z"/>
     </g>
     <g aria-label="P" clip-path="url(#clipPath7040)">
      <path stroke-width=".26458px" fill="#444" d="m31.869 51.498v-5.1435h1.6891c1.4605 0 1.7145 0.635 1.7145 2.1971v0.8001c0 1.5621-0.3429 2.1463-1.7145 2.1463zm1.6891 0.6096c1.6002 0 2.3495-0.635 2.3495-2.7686v-0.8509c0-2.2352-0.7493-2.7432-2.3495-2.7432h-2.3622v9.8044h0.6731v-3.4417z"/>
     </g>
     <g aria-label="BA" clip-path="url(#clipPath7044)" stroke-width=".26458px" fill="#444">
      <path d="m52.63 44.776v-4.2799h1.6256c2.1463 0 2.3241 1.0033 2.3241 2.1209-0.0381 1.4732-0.1778 2.159-2.3241 2.159zm-0.635 0.6223h2.2606c2.3241 0 2.9591-0.7747 2.9591-2.8702 0-1.2319-0.4318-2.2606-1.8542-2.5019 0.6985-0.3429 1.0414-1.1303 1.0414-2.0447 0-1.6764-0.7874-2.413-2.5273-2.413h-1.8669zm1.8796-9.2583c1.3462 0 1.9177 0.4572 1.9177 1.8415 0 1.1684-0.4699 1.8542-1.9939 1.8796h-1.1684l0.0127-3.7211z"/>
      <path d="m59.079 42.96h3.1369l0.635 2.413h0.6731l-2.5146-9.8044h-0.6985l-2.5146 9.8044h0.6604zm1.6002-6.4643 1.397 5.8674h-2.8448l1.4351-5.8674z"/>
     </g>
    </g>
    <g transform="translate(7.0826 11.225)">
     <g aria-label="APP" style="paint-order:stroke markers fill">
      <path style="paint-order:stroke markers fill" d="m40.71 45.77h-1.7399l-2.7051 9.7663h1.8034l0.508-1.7272h2.5019l0.4953 1.7272h1.8034zm-1.7018 6.3246 0.8128-3.6195 0.8128 3.6195z"/>
      <path style="paint-order:stroke markers fill" d="m44.448 45.758v9.779h1.7907v-2.9972h0.6731c2.3241 0 3.4671-0.9398 3.4671-2.9591v-0.9017c0-2.0701-1.1049-2.921-3.4671-2.921zm1.778 5.0927v-3.4925h0.7112c1.3589 0 1.6637 0.4826 1.6637 1.4097v0.7239c0 0.9271-0.4191 1.3589-1.6891 1.3589z"/>
      <path style="paint-order:stroke markers fill" d="m51.857 45.758v9.779h1.7907v-2.9972h0.6731c2.3241 0 3.4671-0.9398 3.4671-2.9591v-0.9017c0-2.0701-1.1049-2.921-3.4671-2.921zm1.778 5.0927v-3.4925h0.7112c1.3589 0 1.6637 0.4826 1.6637 1.4097v0.7239c0 0.9271-0.4191 1.3589-1.6891 1.3589z"/>
     </g>
     <g aria-label="BAR" style="paint-order:stroke markers fill">
      <path style="paint-order:stroke markers fill" d="m31.24 45.373h3.2258c2.3622 0 3.4671-0.8382 3.4671-3.0353 0-1.3462-0.7747-2.2225-1.7907-2.4384 0.7747-0.5207 0.889-1.1176 0.889-1.7145 0-1.524-1.1176-2.5908-2.8829-2.5908h-2.9083zm1.7399-4.4069h1.4859c1.27 0 1.5875 0.4445 1.5875 1.4097 0 0.9271-0.2032 1.4097-1.5621 1.4097h-1.5113zm1.1684-3.8735c0.8636 0 1.0795 0.6223 1.0795 1.1176 0 0.6223-0.3429 1.143-1.0668 1.143h-1.1684v-2.2606z"/>
      <path style="paint-order:stroke markers fill" d="m42.751 35.606h-1.7399l-2.7051 9.7663h1.8034l0.508-1.7272h2.5019l0.4953 1.7272h1.8034zm-1.7018 6.3246 0.8128-3.6195 0.8128 3.6195z"/>
      <path style="paint-order:stroke markers fill" d="m52.811 45.373-2.1463-3.7211c1.1811-0.381 1.6891-1.1684 1.6891-2.6162v-0.508c0-2.0701-1.1049-2.9337-3.4671-2.9337h-2.4638v9.779h1.7526v-3.4417h0.6477l1.9431 3.4417zm-4.6482-5.0546v-3.1115h0.7493c1.3589 0 1.6002 0.4826 1.6002 1.4097v0.3302c0 0.9271-0.3556 1.3716-1.6256 1.3716z"/>
     </g>
    </g>
   </g>
  </g>
 </g>
</svg>
