<?xml version="1.0" encoding="UTF-8" standalone="no"?>
<!-- Created with Inkscape (http://www.inkscape.org/) -->

<svg
        xmlns:dc="http://purl.org/dc/elements/1.1/"
        xmlns:cc="http://creativecommons.org/ns#"
        xmlns:rdf="http://www.w3.org/1999/02/22-rdf-syntax-ns#"
        xmlns="http://www.w3.org/2000/svg"
        xmlns:sodipodi="http://sodipodi.sourceforge.net/DTD/sodipodi-0.dtd"
        xmlns:inkscape="http://www.inkscape.org/namespaces/inkscape"
        version="1.0"
        width="640"
        height="480"
        id="svg24159"
        sodipodi:version="0.32"
        inkscape:version="0.92.1 r15371"
        sodipodi:docname="pirate_4x3.svg"
        inkscape:output_extension="org.inkscape.output.svg.inkscape">
  <metadata
     id="metadata43">
    <rdf:RDF>
      <cc:Work
         rdf:about="">
        <dc:format>image/svg+xml</dc:format>
        <dc:type
           rdf:resource="http://purl.org/dc/dcmitype/StillImage" />
        <dc:title></dc:title>
      </cc:Work>
    </rdf:RDF>
  </metadata>
  <sodipodi:namedview
     inkscape:window-height="1025"
     inkscape:window-width="1920"
     inkscape:pageshadow="2"
     inkscape:pageopacity="0.0"
     guidetolerance="10.0"
     gridtolerance="10.0"
     objecttolerance="10.0"
     borderopacity="1.0"
     bordercolor="#666666"
     pagecolor="#ffffff"
     id="base"
     showgrid="true"
     inkscape:zoom="1.2271936"
     inkscape:cx="293.64303"
     inkscape:cy="256.17313"
     inkscape:window-x="1280"
     inkscape:window-y="27"
     inkscape:current-layer="g2835"
     showguides="true"
     inkscape:guide-bbox="true"
     inkscape:snap-object-midpoints="true"
     inkscape:snap-text-baseline="false"
     inkscape:snap-page="true"
     inkscape:snap-center="true"
     inkscape:window-maximized="1">
    <inkscape:grid
       type="xygrid"
       id="grid4515"
       enabled="true"
       visible="true"
       spacingx="30"
       spacingy="30" />
  </sodipodi:namedview>
  <defs
     id="defs24161">
    <inkscape:perspective
       sodipodi:type="inkscape:persp3d"
       inkscape:vp_x="0 : 213.33333 : 1"
       inkscape:vp_y="0 : 1066.6667 : 0"
       inkscape:vp_z="426.66667 : 213.33333 : 1"
       inkscape:persp3d-origin="213.33333 : 142.22222 : 1"
       id="perspective45" />
  </defs>
  <g
     id="g2835"
     transform="matrix(0.8000001,0,0,0.8000001,-4.3306672e-5,-1.0144585e-5)">
    <path
       id="rect2476"
       d="M 5.4133333e-5,1.268073e-5 H 799.99995 V 599.99994 H 5.4133333e-5 Z"
       style="fill:#000000;fill-opacity:1;stroke-width:1.06666672"
       inkscape:connector-curvature="0"
       sodipodi:nodetypes="ccccc" />
    <g
       transform="matrix(1.4339032,0,0,1.4339032,-1072.4804,87.543726)"
       id="g2803">
      <g
         transform="matrix(0.651999,0,0,0.651999,819.52015,-39.415329)"
         style="font-size:12px;fill:#000000;fill-opacity:1;stroke:#000000;stroke-opacity:0.99122799"
         id="g670">
        <path
           d="m 314.55467,277.02507 c -10.3424,7.86453 -12.6432,10.5056 -18.3584,19.20853 -2.06827,3.35893 -5.93067,11.20853 -6.98667,16.47467 -1.05493,5.26506 -1.84533,12.90453 -1.84213,16.9504 0.0128,13.70986 4.37653,22.3104 9.1424,22.01066 4.25813,-0.48853 9.6768,-4.92906 17.888,-15.0144"
           style="fill:#000000;fill-opacity:1;fill-rule:evenodd;stroke:#000000;stroke-width:1.06666669pt;stroke-linecap:butt;stroke-linejoin:miter;stroke-opacity:0.99122799"
           id="path584"
           inkscape:connector-curvature="0" />
        <path
           d="m 322.00213,277.24704 c 10.3424,7.86453 12.6432,10.5056 18.3584,19.20853 2.06827,3.35894 5.93067,11.20854 6.98667,16.47467 1.05493,5.26507 1.84533,12.90453 1.84213,16.9504 -0.0128,13.70987 -4.37653,22.3104 -9.1424,22.01067 -4.25813,-0.48854 -9.6768,-4.92907 -17.888,-15.0144"
           style="fill:#000000;fill-opacity:1;fill-rule:evenodd;stroke:#000000;stroke-width:1.06666669pt;stroke-linecap:butt;stroke-linejoin:bevel;stroke-opacity:0.99122799"
           id="path585"
           inkscape:connector-curvature="0" />
        <path
           d="m 226.64184,217.1317 c 14.35733,-2.51627 28.26986,-4.144 42.6272,-5.77173 18.79786,-4.73707 28.27093,16.72533 23.09013,32.85866 -6.512,14.35734 -15.68853,26.93867 -26.19733,39.0752 -8.1408,9.17654 -17.83894,10.66134 -27.08694,7.54774 -7.46453,-2.06934 -14.3584,-6.6592 -21.75893,-17.31627 -3.25547,-9.1776 -6.0672,-13.91467 -10.21227,-25.31093 -3.25546,-10.5088 1.808,-26.24 19.53814,-31.08267 z"
           style="fill:#000000;fill-opacity:1;fill-rule:evenodd;stroke:#000000;stroke-width:1.06666669pt;stroke-linecap:butt;stroke-linejoin:miter;stroke-opacity:0.99122799"
           id="path586"
           inkscape:connector-curvature="0" />
        <path
           d="m 410.19605,217.1317 c -14.35733,-2.51627 -28.26986,-4.144 -42.6272,-5.77173 -18.79786,-4.73707 -28.27093,16.72533 -23.09013,32.85866 6.512,14.35734 15.68853,26.93867 26.19733,39.0752 8.1408,9.17654 17.83894,10.66134 27.08694,7.54774 7.46453,-2.06934 14.3584,-6.6592 21.75893,-17.31627 3.25547,-9.1776 6.0672,-13.91467 10.21227,-25.31093 3.25546,-10.5088 -1.808,-26.24 -19.53814,-31.08267 z"
           style="fill:#000000;fill-opacity:1;fill-rule:evenodd;stroke:#000000;stroke-width:1.06666669pt;stroke-linecap:butt;stroke-linejoin:miter;stroke-opacity:0.99122799"
           id="path587"
           inkscape:connector-curvature="0" />
      </g>
      <path
         style="fill:#ffffff;fill-opacity:1;stroke-width:1.06666672"
         d="m 1004.3697,207.65258 c -1.2698,-0.23403 -4.46887,-0.84841 -7.10899,-1.36531 l -4.8002,-0.93978 -0.61237,-4.33129 c -1.82808,-12.92964 -10.92988,-22.03586 -27.474,-27.48727 -13.59395,-4.47934 -17.10402,-7.09117 -20.02632,-14.90174 -3.23227,-8.63907 -3.33317,-15.81138 -0.42655,-30.32456 2.0459,-10.21545 2.59632,-15.56825 2.65472,-25.81682 0.0701,-12.294823 -0.0776,-13.382481 -3.00834,-22.1645 -3.74193,-11.212717 -4.57763,-23.870311 -1.78052,-26.968797 1.53793,-1.703655 1.4596,-1.913858 -1.95663,-5.249727 l -3.55871,-3.475006 -1.96525,2.498355 c -4.85898,6.17722 -4.95346,20.639797 -0.23267,35.623804 1.4995,4.759485 3.00929,10.848803 3.3551,13.531807 0.73938,5.736444 -0.30357,17.963824 -1.47071,17.242484 -1.30484,-0.80644 -7.22127,-11.82855 -9.57987,-17.846993 -6.53652,-16.679185 -8.30667,-37.788619 -4.37272,-52.145768 6.72,-24.525012 23.68032,-43.1071778 47.94408,-52.5288269 21.48078,-8.3410201 55.43645,-12.0705571 78.66015,-8.6396861 20.6324,3.048071 42.0391,9.8246099 51.4169,16.2767144 16.1647,11.1216576 29.0004,30.7814696 32.8286,50.2819276 1.7773,9.054348 1.5263,27.997811 -0.4715,35.555556 -1.774,6.71094 -8.6723,21.195076 -12.056,25.313306 l -2.2077,2.68703 -0.6642,-4.42924 c -1.0137,-6.75973 0.1292,-16.810193 2.7855,-24.494617 3.4182,-9.888942 4.8584,-22.320042 3.361,-29.011422 -0.6436,-2.875281 -2.1455,-6.355135 -3.338,-7.733 l -2.168,-2.505217 -3.2915,3.175212 c -3.0984,2.988874 -3.2107,3.298577 -1.9139,5.277747 0.9489,1.448302 1.3776,4.551868 1.3776,9.973925 0,6.415533 -0.5551,9.538798 -3.0014,16.886745 -2.8186,8.465945 -3.0006,9.803333 -2.9875,21.944667 0.011,10.29477 0.5542,15.81064 2.6656,27.06986 2.4214,12.91251 2.5579,14.70835 1.572,20.67822 -1.3684,8.28558 -4.1293,14.73604 -7.3101,17.07846 -1.3655,1.00547 -5.3917,2.9458 -8.9472,4.31187 -22.3955,8.60448 -30.5166,15.59006 -33.1537,28.51801 l -1.1565,5.6698 -5.0095,1.28442 c -4.9229,1.26222 -47.2811,2.45443 -52.5707,1.47964 z m 11.8208,-18.26038 c 1.3716,-0.70941 3.8285,-2.95086 5.4597,-4.98099 l 2.9659,-3.69117 0.2665,-19.9549 c 0.1805,-13.52107 -0.047,-19.95465 -0.7057,-19.95407 -2.3214,0.002 -10.7202,9.74019 -13.8334,16.03936 -2.7961,5.65738 -3.3812,7.94502 -3.8388,15.00897 -0.5618,8.67091 0.438,14.03944 3.2043,17.2065 1.706,1.95323 3.1914,2.028 6.4815,0.32631 z m 29.1832,-1.7811 c 1.7005,-2.2874 1.9398,-3.88793 1.9398,-12.97842 0,-10.10217 -0.088,-10.54785 -3.4282,-17.30435 -3.0676,-6.20577 -11.7267,-16.5164 -13.8709,-16.5164 -0.3903,0 -0.7096,8.96279 -0.7096,19.91732 v 19.91732 l 2.5326,3.32034 c 3.0067,3.94204 7.4005,6.84391 9.8423,6.50028 0.9649,-0.13579 2.6272,-1.42104 3.694,-2.85609 z m -58.27907,-36.96331 c 5.568,-2.32647 18.28817,-18.31645 22.94417,-28.84222 3.8192,-8.63387 0.4501,-20.55842 -6.6379,-23.494377 -2.4694,-1.022855 -4.83352,-1.033466 -13.70606,-0.06153 -18.15957,1.989267 -25.12977,3.500227 -29.09681,6.307367 -7.92613,5.60868 -8.93778,12.94099 -3.6315,26.32068 3.64387,9.1879 6.05177,12.708 11.28866,16.50265 6.14168,4.45026 13.11429,5.65954 18.83947,3.26742 z m 97.07277,-1.88617 c 2.2375,-1.31127 5.3255,-3.9717 6.8624,-5.91206 2.8123,-3.55083 10.3141,-21.01566 10.3045,-23.98982 -0.021,-6.6838 -5.1051,-13.98936 -11.351,-16.31276 -4.3977,-1.63583 -18.7832,-3.896393 -30.5525,-4.801056 l -7.9103,-0.608037 -3.631,3.630983 c -4.1581,4.15816 -6.1301,9.92174 -5.2588,15.37027 1.4951,9.35012 16.5975,30.94585 24.0767,34.42869 4.1811,1.94702 12.5292,1.08342 17.46,-1.80622 z"
         id="path2418"
         inkscape:connector-curvature="0" />
      <path
         style="fill:#ffffff;fill-opacity:1;stroke-width:1.06666672"
         d="m 1008.1681,273.29595 c -13.56695,-2.94332 -19.9642,-6.5264 -27.70917,-15.51989 -8.73673,-10.14513 -11.64204,-19.8794 -10.92769,-36.61341 0.57087,-13.37309 -0.24976,-19.66431 -3.95391,-30.31101 -3.29,-9.45633 -1.5439,-9.7693 2.07311,-0.37159 3.94023,10.23754 7.10589,21.96185 8.52636,31.57823 l 1.29943,8.79693 4.74952,4.29747 c 10.68807,9.67077 22.26655,13.04108 45.23195,13.16633 17.2964,0.0943 23.3822,-1.05878 34.8458,-6.60237 8.8296,-4.26978 13.7353,-9.52224 14.5814,-15.61195 2.4701,-17.77861 9.7596,-41.49423 13.085,-42.57148 0.6638,-0.21498 0.031,2.78227 -1.5998,7.57669 -3.6869,10.83996 -4.46,16.66924 -3.8884,29.31975 0.8607,19.04524 -2.5313,28.71822 -14.0573,40.08702 -5.6125,5.53604 -7.8162,7.0167 -13.964,9.38226 -4.0149,1.54487 -9.7659,3.26214 -12.7798,3.81618 -7.5207,1.3825 -28.3405,1.13677 -35.5125,-0.41915 z"
         id="path2420"
         inkscape:connector-curvature="0" />
      <path
         style="fill:#ffffff;fill-opacity:1;stroke-width:1.06666672"
         d="m 921.505,195.59824 c -41.44699,-20.18631 -39.81437,-19.69695 -58.53355,-17.54444 -7.84201,0.90175 -14.4906,0.005 -18.25846,-2.46162 -2.27628,-1.49039 0.67233,-6.19589 8.95228,-14.28638 7.64609,-7.47114 7.74027,-7.67954 8.75182,-19.36683 0.36481,-4.21497 1.25309,-8.91627 1.97393,-10.44732 3.20974,-6.81739 10.88072,-2.32702 17.7885,10.41292 2.62362,4.83875 6.31379,10.42078 8.20032,12.40449 2.27634,2.39356 13.727,8.77277 34.04255,18.96513 l 30.61249,15.35835 2.74622,9.13443 c 2.68317,8.92455 3.56018,16.23134 1.93331,16.10697 -0.44715,-0.0341 -17.64136,-8.25825 -38.20941,-18.27569 z"
         id="path2422"
         inkscape:connector-curvature="0" />
      <path
         style="fill:#ffffff;fill-opacity:1;stroke-width:1.06666672"
         d="m 1154.0425,312.28478 c -2.8878,-2.15467 -5.7849,-5.92245 -8.3263,-10.82944 -6.6785,-12.89404 -9.522,-15.18938 -35.6591,-28.78645 -12.9594,-6.74167 -23.7849,-12.62293 -24.057,-13.06944 -0.272,-0.44653 0.6975,-4.14341 2.1544,-8.21533 1.4568,-4.07193 2.6487,-8.37072 2.6487,-9.5529 0,-1.18216 0.1732,-2.14942 0.385,-2.14942 0.2118,0 11.7967,5.3688 25.744,11.93068 31.181,14.66975 32.0966,14.98771 39.8772,13.84565 3.3423,-0.49057 9.8068,-0.92361 14.3657,-0.96231 6.6952,-0.0568 8.7274,0.33244 10.5687,2.0246 1.2536,1.15221 2.2796,2.58 2.2796,3.17285 0,0.59285 -4.1321,5.09373 -9.1821,10.00195 l -9.1822,8.92404 -1.0621,10.18447 c -1.0424,9.99739 -2.7752,15.68338 -5.0023,16.41585 -0.6178,0.20323 -3.1163,-1.11743 -5.5522,-2.9348 z"
         id="path2426"
         inkscape:connector-curvature="0" />
      <path
         style="fill:#ffffff;fill-opacity:1;stroke-width:1.06666672"
         d="m 892.75751,312.10157 c -0.55936,-1.04733 -1.63241,-6.79707 -2.38456,-12.77719 l -1.36753,-10.87291 -9.17201,-9.52432 c -5.73411,-5.95433 -9.03608,-10.22987 -8.80921,-11.40665 0.68317,-3.54361 5.14383,-4.82429 13.95953,-4.00776 4.49325,0.41617 11.60077,0.79254 15.7945,0.83637 9.07893,0.0949 15.27038,-2.23131 43.32366,-16.27728 10.04868,-5.03125 18.50417,-9.14776 18.78999,-9.14776 0.28586,0 0.51969,0.95133 0.51969,2.11404 0,1.16272 1.28896,5.58783 2.86436,9.8336 1.57542,4.24577 2.67829,7.87167 2.45086,8.05757 -0.22739,0.18588 -11.69127,6.26793 -25.47525,13.51565 l -25.06179,13.17766 -7.96028,11.9925 c -10.16752,15.31782 -14.92232,19.26018 -17.47193,14.48648 z"
         id="path2424"
         inkscape:connector-curvature="0" />
      <path
         style="fill:#ffffff;fill-opacity:1;stroke-width:1.06666672"
         d="m 1093.546,209.47084 c 0.3511,-2.96175 1.7875,-8.73102 3.192,-12.8206 l 2.5535,-7.43555 31.0766,-15.388 c 34.4511,-17.0589 34.2642,-16.91706 41.6665,-31.64381 4.9537,-9.8555 13.0141,-16.40046 15.9082,-12.91705 1.5199,1.82947 4.3617,15.08077 4.3867,20.45477 0.017,3.59127 1.1115,5.2536 9.2358,14.02354 10.2572,11.07215 10.6302,12.92684 3.0246,15.03685 -5.3281,1.47819 -10.4946,1.43411 -19.8557,-0.16945 -5.8185,-0.99673 -8.7753,-1.01188 -12.3262,-0.0631 -2.569,0.68646 -18.8631,7.94952 -36.2087,16.14014 -17.3458,8.19065 -34.1822,16.079 -37.4146,17.5297 l -5.8772,2.63763 z"
         id="path2428"
         inkscape:connector-curvature="0" />
      <path
         style="fill:#ffffff;fill-opacity:1;stroke-width:1.06666672"
         d="m 983.69391,230.07358 c -1.72104,-1.88632 -1.6283,-1.61676 -2.26974,-6.59719 -0.69501,-5.39644 -1.82161,-11.31843 -3.10733,-16.33383 -1.13887,-4.44251 -4.14702,-13.78793 -5.77824,-17.95124 -0.47335,-1.2081 -0.81441,-2.2463 -0.75792,-2.30711 0.21514,-0.2316 4.93978,3.39064 6.01689,4.61296 3.12905,3.55095 4.61875,6.94693 4.86842,11.09832 l 0.16326,2.71438 1.36368,0.7422 1.36369,0.7422 -0.10304,11.91918 c -0.0566,6.55553 -0.12969,12.17267 -0.16233,12.48252 -0.0465,0.44162 -0.3917,0.19907 -1.59738,-1.12239 z"
         id="path2479"
         inkscape:connector-curvature="0" />
      <path
         style="fill:#ffffff;fill-opacity:1;stroke-width:1.06666672"
         d="m 993.87167,221.45274 c -0.56378,-0.27101 -1.84876,-0.93767 -2.8555,-1.48145 l -1.83044,-0.98871 v -5.26503 c 0,-4.8732 0.0382,-5.25448 0.51252,-5.123 0.28189,0.0782 1.59981,0.44366 2.92872,0.81229 l 2.41618,0.67024 v 5.95791 c 0,3.27685 -0.033,5.94724 -0.0732,5.9342 -0.0402,-0.013 -0.53448,-0.24544 -1.09826,-0.51645 z"
         id="path2481"
         inkscape:connector-curvature="0" />
      <path
         style="fill:#ffffff;fill-opacity:1;stroke-width:1.06666672"
         d="m 992.40731,236.72998 c -1.04701,-0.58791 -2.22142,-1.31345 -2.6098,-1.61232 l -0.70613,-0.54338 0.0691,-5.48289 c 0.0381,-3.01558 0.10389,-5.51761 0.14637,-5.56006 0.0425,-0.0425 1.28196,0.48364 2.75447,1.16908 l 2.67731,1.24626 0.005,5.93064 c 0.003,3.26185 -0.093,5.92861 -0.21387,5.92612 -0.12081,-0.002 -1.0763,-0.48553 -2.12332,-1.07345 z"
         id="path2483"
         inkscape:connector-curvature="0" />
      <path
         style="fill:#ffffff;fill-opacity:1;stroke-width:1.06666672"
         d="m 1002.3649,240.90238 c -1.2081,-0.37021 -2.55893,-0.81925 -3.00189,-0.9979 l -0.8054,-0.3248 v -6.01111 c 0,-3.30612 0.0846,-6.01111 0.18808,-6.01111 0.10346,0 1.05893,0.25445 2.12331,0.56545 1.0644,0.31101 2.4954,0.71146 3.1799,0.8899 l 1.2447,0.32445 v 3.89828 c 0,4.24791 -0.2753,8.3914 -0.5555,8.35983 -0.097,-0.011 -1.1651,-0.32279 -2.3732,-0.69299 z"
         id="path2485"
         inkscape:connector-curvature="0" />
      <path
         style="fill:#ffffff;fill-opacity:1;stroke-width:1.06666672"
         d="m 1004.5615,225.2967 c -0.3222,-0.0785 -1.8222,-0.53622 -3.3334,-1.01718 l -2.74766,-0.87449 0.13573,-6.1237 c 0.0747,-3.36803 0.19544,-6.18342 0.26843,-6.25641 0.073,-0.073 1.5449,0.0813 3.2709,0.34282 l 3.1381,0.47553 v 6.83205 c 0,3.75762 -0.033,6.81674 -0.073,6.79807 -0.04,-0.0187 -0.3368,-0.0982 -0.659,-0.17669 z"
         id="path2487"
         inkscape:connector-curvature="0" />
      <path
         style="fill:#ffffff;fill-opacity:1;stroke-width:1.06666672"
         d="m 1011.8833,226.63974 c -1.1276,-0.14182 -2.2149,-0.31871 -2.4162,-0.39306 -0.2787,-0.10294 -0.3661,-1.78088 -0.3661,-7.02686 v -6.89167 h 2.319 c 1.2755,0 2.5275,0.08 2.7823,0.17777 0.4049,0.15538 0.4632,1.07755 0.4632,7.32178 0,5.53972 -0.082,7.13569 -0.3661,7.10697 -0.2013,-0.0204 -1.2886,-0.15309 -2.4161,-0.29493 z"
         id="path2489"
         inkscape:connector-curvature="0" />
      <path
         style="fill:#ffffff;fill-opacity:1;stroke-width:1.06666672"
         d="m 1011.6636,242.85489 -2.8555,-0.44909 v -4.45249 c 0,-2.44888 0.082,-5.23183 0.181,-6.18433 l 0.181,-1.73183 2.0888,0.25073 c 1.1488,0.13791 2.3852,0.30734 2.7477,0.37654 l 0.6589,0.12578 v 6.29115 c 0,3.46013 -0.033,6.27574 -0.073,6.25688 -0.04,-0.0189 -1.3582,-0.23635 -2.9288,-0.48335 z"
         id="path2491"
         inkscape:connector-curvature="0" />
      <path
         style="fill:#ffffff;fill-opacity:1;stroke-width:1.06666672"
         d="m 1019.864,243.74298 -1.3911,-0.10969 v -6.28069 -6.28069 h 3.5144 3.5145 v 6.44317 6.44317 l -2.1233,-0.0528 c -1.1679,-0.029 -2.7494,-0.10219 -3.5145,-0.16248 z"
         id="path2493"
         inkscape:connector-curvature="0" />
      <path
         style="fill:#ffffff;fill-opacity:1;stroke-width:1.06666672"
         d="m 1018.4729,219.94281 v -7.3218 h 3.5144 3.5145 v 7.3218 7.32178 h -3.5145 -3.5144 z"
         id="path2495"
         inkscape:connector-curvature="0" />
      <path
         style="fill:#ffffff;fill-opacity:1;stroke-width:1.06666672"
         d="m 1029.0162,219.98577 v -7.36476 h 3.2216 3.2216 v 7.17535 7.17535 h -0.9809 c -0.5394,0 -1.9892,0.0852 -3.2216,0.18941 l -2.2407,0.18941 z"
         id="path2497"
         inkscape:connector-curvature="0" />
      <path
         style="fill:#ffffff;fill-opacity:1;stroke-width:1.06666672"
         d="m 1029.2359,244.08767 c -0.1208,-0.12488 -0.2197,-3.08803 -0.2197,-6.58479 v -6.35775 l 0.9152,-0.18305 c 0.5034,-0.10069 1.9329,-0.18304 3.1766,-0.18304 h 2.2614 l 0.1914,3.56044 c 0.1053,1.95824 0.1915,4.92356 0.1915,6.5896 v 3.02917 l -1.2447,0.002 c -0.6846,0.001 -2.1014,0.0814 -3.1484,0.17824 -1.047,0.0969 -2.0025,0.074 -2.1233,-0.0509 z"
         id="path2499"
         inkscape:connector-curvature="0" />
      <path
         style="fill:#ffffff;fill-opacity:1;stroke-width:1.06666672"
         d="m 1044.911,239.27231 c 0,-0.72485 0.057,-1.02139 0.127,-0.65896 0.07,0.36243 0.07,0.95549 0,1.31792 -0.07,0.36243 -0.127,0.0659 -0.127,-0.65896 z"
         id="path2501"
         inkscape:connector-curvature="0" />
      <path
         style="fill:#ffffff;fill-opacity:1;stroke-width:1.06666672"
         d="m 1039.2667,219.56951 v -7.16081 l 2.5204,-0.20451 c 1.3863,-0.11248 2.5618,-0.16312 2.6124,-0.11254 0.051,0.0506 0.1872,3.20407 0.3035,7.00776 l 0.2115,6.9158 -1.7256,0.19394 c -0.9491,0.10667 -2.2199,0.26758 -2.8239,0.35756 l -1.0983,0.16363 z"
         id="path2503"
         inkscape:connector-curvature="0" />
      <path
         style="fill:#ffffff;fill-opacity:1;stroke-width:1.06666672"
         d="m 1048.4957,224.58565 c -0.093,-0.37899 -0.132,-3.44935 -0.086,-6.823 l 0.083,-6.13392 3.2948,-0.46199 3.2948,-0.46198 10e-4,1.76353 c 6e-4,0.96993 0.087,3.82716 0.1912,6.34936 l 0.1902,4.58586 -2.3215,0.73335 c -1.2768,0.40335 -2.8067,0.82439 -3.3996,0.93563 -0.9678,0.18156 -1.0955,0.13172 -1.2474,-0.48684 z"
         id="path2505"
         inkscape:connector-curvature="0" />
      <path
         style="fill:#ffffff;fill-opacity:1;stroke-width:1.06666672"
         d="m 1048.6386,235.37619 v -6.23909 l 2.7792,-0.67 c 1.5285,-0.3685 3.0469,-0.74 3.3741,-0.82555 0.5857,-0.15317 0.5936,-0.0614 0.5156,5.94144 l -0.079,6.09701 -2.7823,0.94765 c -1.5302,0.52121 -3.0129,0.95665 -3.2948,0.96765 -0.4727,0.0185 -0.5125,-0.46475 -0.5125,-6.21911 z"
         id="path2507"
         inkscape:connector-curvature="0" />
      <path
         style="fill:#ffffff;fill-opacity:1;stroke-width:1.06666672"
         d="m 1059.1808,235.68464 c -7e-4,-1.16783 -0.086,-3.77659 -0.1886,-5.79724 l -0.1874,-3.67392 2.8976,-1.44026 c 1.5937,-0.79215 2.9965,-1.48919 3.1173,-1.54896 0.1209,-0.0597 0.2195,2.50519 0.2192,5.69993 l -6e-4,5.80861 -1.2441,0.7832 c -1.3353,0.84055 -4.1439,2.29196 -4.4351,2.29196 -0.097,0 -0.1777,-0.9555 -0.1783,-2.12332 z"
         id="path2509"
         inkscape:connector-curvature="0" />
      <path
         style="fill:#ffffff;fill-opacity:1;stroke-width:1.06666672"
         d="m 1058.8891,215.9176 v -6.08373 l 2.4162,-0.63088 c 1.3289,-0.34698 2.6468,-0.72241 2.9287,-0.8343 0.4767,-0.1892 0.5125,0.1667 0.5125,5.09594 v 5.29934 l -1.1091,0.70015 c -0.61,0.38507 -1.9279,1.11348 -2.9287,1.61867 l -1.8196,0.91854 z"
         id="path2511"
         inkscape:connector-curvature="0" />
      <path
         style="fill:#ffffff;fill-opacity:1;stroke-width:1.06666672"
         d="m 1068.7453,227.80434 c -0.1056,-1.95823 -0.191,-7.52645 -0.1904,-12.37381 l 10e-4,-8.81338 1.5892,-0.85718 c 1.7162,-0.92579 1.913,-1.28386 1.9192,-3.49361 0.011,-3.54109 1.9635,-7.93763 4.8106,-10.82656 2.2215,-2.25417 4.7498,-4.09103 4.4774,-3.25293 -0.1013,0.31083 -1.238,3.66225 -2.5264,7.44762 -3.5209,10.3441 -5.6007,19.38796 -6.7923,29.53588 -0.3317,2.82559 -0.4353,3.13824 -1.5277,4.61272 -0.6445,0.86993 -1.2612,1.58169 -1.3705,1.58169 -0.1093,0 -0.2848,-1.60219 -0.3901,-3.56043 z"
         id="path2513"
         inkscape:connector-curvature="0" />
      <path
         style="fill:#ffffff;fill-opacity:1;stroke-width:1.06666672"
         d="m 1039.2834,236.77712 c 0,-5.98317 0.052,-6.41983 0.7706,-6.41983 0.4238,0 1.6353,-0.11853 2.6922,-0.26339 l 1.9216,-0.26339 v 6.42193 6.42194 l -1.5532,0.25672 c -0.8542,0.1412 -2.0657,0.25878 -2.6922,0.26128 l -1.139,0.004 z"
         id="path2580"
         inkscape:connector-curvature="0" />
    </g>
  </g>
</svg>
