<?xml version="1.0" encoding="UTF-8" standalone="no"?>
<!-- Created with Inkscape (http://www.inkscape.org/) -->
<svg xmlns:rdf="http://www.w3.org/1999/02/22-rdf-syntax-ns#" xmlns="http://www.w3.org/2000/svg" height="9.8298mm"
     width="61.036mm" version="1.1" xmlns:cc="http://creativecommons.org/ns#"
     viewBox="0 0 61.03635 9.8297995" xmlns:dc="http://purl.org/dc/elements/1.1/">
 <defs>
  <clipPath id="clipPath6792" clipPathUnits="userSpaceOnUse">
   <path style="paint-order:stroke markers fill" d="m52.421 83.16h40.868v10.158h-40.868zm-6.2214-0.81622v11.895h3.8691v-1.6191l0.91406 1.6191h4.4961l-0.91602-1.5859-1.6953-2.9414c0.26675-0.20631 0.62386-0.29976 0.80859-0.58594 0.42302-0.65531 0.57032-1.4336 0.57032-2.2812v-0.50781c0-1.2233-0.37376-2.3487-1.2285-3.0586-0.85476-0.70993-1.9868-0.9336-3.2969-0.9336zm3.8555 3.75c0.05209 0.01381 0.27375 0.04806 0.24219 0.01564-0.0718-0.07378-0.0078-0.05728-0.0078 0.31445v0.33008c0 0.32824-0.04481 0.30036 0.0059 0.2539 0.02119-0.01942-0.18692 0.01029-0.24023 0.0254zm32.227-3.75v11.895h3.9082v-3.043c1.1325-0.05071 2.1449-0.28515 2.9023-0.92578 0.84774-0.71696 1.2363-1.8356 1.2363-3.0449v-0.90234c0-1.2233-0.37626-2.3464-1.2324-3.0527-0.85616-0.70633-1.9848-0.92578-3.293-0.92578zm3.8945 3.752c0.059 0.01667 0.28485 0.04763 0.26172 0.0254-0.05387-0.05179-0.0039-0.05655-0.0039 0.29102v0.72266c0 0.30408-0.02783 0.24931 0.0059 0.2207 0.01394-0.01185-0.20088 0.01542-0.26367 0.0332zm-16.395-3.7402-3.293 11.883h3.9883l0.50781-1.7266h0.91211l0.49609 1.7266h3.9863l-3.247-11.884h-0.80664zm1.6094 2.1172h0.12696l0.38672 1.4141h-0.90625z"/>
  </clipPath>
  <clipPath id="clipPath6796" clipPathUnits="userSpaceOnUse">
   <path style="paint-order:stroke markers fill" d="m52.421 83.16h40.868v10.158h-40.868zm-6.2214-0.81622v11.895h3.8691v-1.6191l0.91406 1.6191h4.4961l-0.91602-1.5859-1.6953-2.9414c0.26675-0.20631 0.62386-0.29976 0.80859-0.58594 0.42302-0.65531 0.57032-1.4336 0.57032-2.2812v-0.50781c0-1.2233-0.37376-2.3487-1.2285-3.0586-0.85476-0.70993-1.9868-0.9336-3.2969-0.9336zm3.8555 3.75c0.05209 0.01381 0.27375 0.04806 0.24219 0.01564-0.0718-0.07378-0.0078-0.05728-0.0078 0.31445v0.33008c0 0.32824-0.04481 0.30036 0.0059 0.2539 0.02119-0.01942-0.18692 0.01029-0.24023 0.0254zm32.227-3.75v11.895h3.9082v-3.043c1.1325-0.05071 2.1449-0.28515 2.9023-0.92578 0.84774-0.71696 1.2363-1.8356 1.2363-3.0449v-0.90234c0-1.2233-0.37626-2.3464-1.2324-3.0527-0.85616-0.70633-1.9848-0.92578-3.293-0.92578zm3.8945 3.752c0.059 0.01667 0.28485 0.04763 0.26172 0.0254-0.05387-0.05179-0.0039-0.05655-0.0039 0.29102v0.72266c0 0.30408-0.02783 0.24931 0.0059 0.2207 0.01394-0.01185-0.20088 0.01542-0.26367 0.0332zm-16.395-3.7402-3.293 11.883h3.9883l0.50781-1.7266h0.91211l0.49609 1.7266h3.9863l-3.247-11.884h-0.80664zm1.6094 2.1172h0.12696l0.38672 1.4141h-0.90625z"/>
  </clipPath>
 </defs>
 <metadata>
  <rdf:RDF>
   <cc:Work rdf:about="">
    <dc:format>image/svg+xml</dc:format>
    <dc:type rdf:resource="http://purl.org/dc/dcmitype/StillImage"/>
    <dc:title/>
   </cc:Work>
  </rdf:RDF>
 </metadata>
 <g transform="translate(-.053882 -287.17)">
  <g transform="translate(-32.074 203.79)">
   <g font-size="10.583px" font-family="sans-serif" fill="#444444">
    <text style="word-spacing:0px;letter-spacing:0px" clip-path="url(#clipPath6792)" xml:space="preserve" line-height="125%" y="93.180466" x="87.322151"><tspan font-family="&apos;Kelson Sans&apos;" font-weight="300" font-size="12.7px" y="93.180466" x="87.322151" stroke-width=".26458px" fill="#444444">A</tspan></text>
    <text style="word-spacing:0px;letter-spacing:0px" clip-path="url(#clipPath6796)" xml:space="preserve" line-height="125%" y="93.180466" x="51.934109"><tspan font-family="&apos;Kelson Sans&apos;" font-weight="300" font-size="12.7px" y="93.180466" x="51.934109" stroke-width=".26458px" fill="#444444">BAP</tspan></text>
   </g>
   <g>
    <g aria-label="APP" style="paint-order:stroke markers fill">
     <path style="paint-order:stroke markers fill" d="m72.326 83.414h-1.7399l-2.7051 9.7663h1.8034l0.508-1.7272h2.5019l0.4953 1.7272h1.8034zm-1.7018 6.3246 0.8128-3.6195 0.8128 3.6195z"/>
     <path style="paint-order:stroke markers fill" d="m75.997 83.401v9.779h1.7907v-2.9972h0.6731c2.3241 0 3.4671-0.9398 3.4671-2.9591v-0.9017c0-2.0701-1.1049-2.921-3.4671-2.921zm1.778 5.0927v-3.4925h0.7112c1.3589 0 1.6637 0.4826 1.6637 1.4097v0.7239c0 0.9271-0.4191 1.3589-1.6891 1.3589z"/>
     <path style="paint-order:stroke markers fill" d="m83.34 83.401v9.779h1.7907v-2.9972h0.6731c2.3241 0 3.4671-0.9398 3.4671-2.9591v-0.9017c0-2.0701-1.1049-2.921-3.4671-2.921zm1.778 5.0927v-3.4925h0.7112c1.3589 0 1.6637 0.4826 1.6637 1.4097v0.7239c0 0.9271-0.4191 1.3589-1.6891 1.3589z"/>
    </g>
    <g aria-label="ARR" style="paint-order:stroke markers fill">
     <path style="paint-order:stroke markers fill" d="m36.573 83.414h-1.7399l-2.7051 9.7663h1.8034l0.508-1.7272h2.5019l0.4953 1.7272h1.8034zm-1.7018 6.3246 0.8128-3.6195 0.8128 3.6195z"/>
     <path style="paint-order:stroke markers fill" d="m46.381 93.18-2.1463-3.7211c1.1811-0.381 1.6891-1.1684 1.6891-2.6162v-0.508c0-2.0701-1.1049-2.9337-3.4671-2.9337h-2.4638v9.779h1.7526v-3.4417h0.6477l1.9431 3.4417zm-4.6482-5.0546v-3.1115h0.7493c1.3589 0 1.6002 0.4826 1.6002 1.4097v0.3302c0 0.9271-0.3556 1.3716-1.6256 1.3716z"/>
     <path style="paint-order:stroke markers fill" d="m53.671 93.18-2.1463-3.7211c1.1811-0.381 1.6891-1.1684 1.6891-2.6162v-0.508c0-2.0701-1.1049-2.9337-3.4671-2.9337h-2.4638v9.779h1.7526v-3.4417h0.6477l1.9431 3.4417zm-4.6482-5.0546v-3.1115h0.7493c1.3589 0 1.6002 0.4826 1.6002 1.4097v0.3302c0 0.9271-0.3556 1.3716-1.6256 1.3716z"/>
    </g>
   </g>
  </g>
 </g>
 <g transform="translate(-.053882 -287.17)"></g>
</svg>
