<?xml version="1.0" encoding="UTF-8" standalone="no"?>
<svg xmlns:rdf="http://www.w3.org/1999/02/22-rdf-syntax-ns#" xmlns="http://www.w3.org/2000/svg" height="9.8298mm" width="61.09mm" version="1.1" xmlns:cc="http://creativecommons.org/ns#" xmlns:dc="http://purl.org/dc/elements/1.1/" viewBox="0 0 61.090233 9.8297995">
 <defs>
  <clipPath id="clipPath6792" clipPathUnits="userSpaceOnUse">
   <path style="paint-order:stroke markers fill" d="m52.421 83.16h40.868v10.158h-40.868zm-6.2214-0.81622v11.895h3.8691v-1.6191l0.91406 1.6191h4.4961l-0.91602-1.5859-1.6953-2.9414c0.26675-0.20631 0.62386-0.29976 0.80859-0.58594 0.42302-0.65531 0.57032-1.4336 0.57032-2.2812v-0.50781c0-1.2233-0.37376-2.3487-1.2285-3.0586-0.85476-0.70993-1.9868-0.9336-3.2969-0.9336zm3.8555 3.75c0.05209 0.01381 0.27375 0.04806 0.24219 0.01564-0.0718-0.07378-0.0078-0.05728-0.0078 0.31445v0.33008c0 0.32824-0.04481 0.30036 0.0059 0.2539 0.02119-0.01942-0.18692 0.01029-0.24023 0.0254zm32.227-3.75v11.895h3.9082v-3.043c1.1325-0.05071 2.1449-0.28515 2.9023-0.92578 0.84774-0.71696 1.2363-1.8356 1.2363-3.0449v-0.90234c0-1.2233-0.37626-2.3464-1.2324-3.0527-0.85616-0.70633-1.9848-0.92578-3.293-0.92578zm3.8945 3.752c0.059 0.01667 0.28485 0.04763 0.26172 0.0254-0.05387-0.05179-0.0039-0.05655-0.0039 0.29102v0.72266c0 0.30408-0.02783 0.24931 0.0059 0.2207 0.01394-0.01185-0.20088 0.01542-0.26367 0.0332zm-16.395-3.7402-3.293 11.883h3.9883l0.50781-1.7266h0.91211l0.49609 1.7266h3.9863l-3.247-11.884h-0.80664zm1.6094 2.1172h0.12696l0.38672 1.4141h-0.90625z"/>
  </clipPath>
  <clipPath id="clipPath6796" clipPathUnits="userSpaceOnUse">
   <path style="paint-order:stroke markers fill" d="m52.421 83.16h40.868v10.158h-40.868zm-6.2214-0.81622v11.895h3.8691v-1.6191l0.91406 1.6191h4.4961l-0.91602-1.5859-1.6953-2.9414c0.26675-0.20631 0.62386-0.29976 0.80859-0.58594 0.42302-0.65531 0.57032-1.4336 0.57032-2.2812v-0.50781c0-1.2233-0.37376-2.3487-1.2285-3.0586-0.85476-0.70993-1.9868-0.9336-3.2969-0.9336zm3.8555 3.75c0.05209 0.01381 0.27375 0.04806 0.24219 0.01564-0.0718-0.07378-0.0078-0.05728-0.0078 0.31445v0.33008c0 0.32824-0.04481 0.30036 0.0059 0.2539 0.02119-0.01942-0.18692 0.01029-0.24023 0.0254zm32.227-3.75v11.895h3.9082v-3.043c1.1325-0.05071 2.1449-0.28515 2.9023-0.92578 0.84774-0.71696 1.2363-1.8356 1.2363-3.0449v-0.90234c0-1.2233-0.37626-2.3464-1.2324-3.0527-0.85616-0.70633-1.9848-0.92578-3.293-0.92578zm3.8945 3.752c0.059 0.01667 0.28485 0.04763 0.26172 0.0254-0.05387-0.05179-0.0039-0.05655-0.0039 0.29102v0.72266c0 0.30408-0.02783 0.24931 0.0059 0.2207 0.01394-0.01185-0.20088 0.01542-0.26367 0.0332zm-16.395-3.7402-3.293 11.883h3.9883l0.50781-1.7266h0.91211l0.49609 1.7266h3.9863l-3.247-11.884h-0.80664zm1.6094 2.1172h0.12696l0.38672 1.4141h-0.90625z"/>
  </clipPath>
 </defs>
 <metadata>
  <rdf:RDF>
   <cc:Work rdf:about="">
    <dc:format>image/svg+xml</dc:format>
    <dc:type rdf:resource="http://purl.org/dc/dcmitype/StillImage"/>
    <dc:title/>
   </cc:Work>
  </rdf:RDF>
 </metadata>
 <g transform="translate(0 -287.17)">
  <g font-size="10.583px" font-family="sans-serif" transform="translate(-32.074 203.79)">
   <g fill="#444">
    <g aria-label="A" clip-path="url(#clipPath6792)">
     <path stroke-width=".26458px" fill="#444" d="m88.719 90.767h3.1369l0.635 2.413h0.6731l-2.5146-9.8044h-0.6985l-2.5146 9.8044h0.6604zm1.6002-6.4643 1.397 5.8674h-2.8448l1.4351-5.8674z"/>
    </g>
    <g aria-label="BAP" clip-path="url(#clipPath6796)" stroke-width=".26458px" fill="#444">
     <path d="m53.331 92.584v-4.2799h1.6256c2.1463 0 2.3241 1.0033 2.3241 2.1209-0.0381 1.4732-0.1778 2.159-2.3241 2.159zm-0.635 0.6223h2.2606c2.3241 0 2.9591-0.7747 2.9591-2.8702 0-1.2319-0.4318-2.2606-1.8542-2.5019 0.6985-0.3429 1.0414-1.1303 1.0414-2.0447 0-1.6764-0.7874-2.413-2.5273-2.413h-1.8669zm1.8796-9.2583c1.3462 0 1.9177 0.4572 1.9177 1.8415 0 1.1684-0.4699 1.8542-1.9939 1.8796h-1.1684l0.0127-3.7211z"/>
     <path d="m59.78 90.767h3.1369l0.635 2.413h0.6731l-2.5146-9.8044h-0.6985l-2.5146 9.8044h0.6604zm1.6002-6.4643 1.397 5.8674h-2.8448l1.4351-5.8674z"/>
     <path d="m65.899 89.129v-5.1435h1.6891c1.4605 0 1.7145 0.635 1.7145 2.1971v0.8001c0 1.5621-0.3429 2.1463-1.7145 2.1463zm1.6891 0.6096c1.6002 0 2.3495-0.635 2.3495-2.7686v-0.8509c0-2.2352-0.7493-2.7432-2.3495-2.7432h-2.3622v9.8044h0.6731v-3.4417z"/>
    </g>
   </g>
   <g>
    <g aria-label="APP" style="paint-order:stroke markers fill">
     <path style="paint-order:stroke markers fill" d="m72.326 83.414h-1.7399l-2.7051 9.7663h1.8034l0.508-1.7272h2.5019l0.4953 1.7272h1.8034zm-1.7018 6.3246 0.8128-3.6195 0.8128 3.6195z"/>
     <path style="paint-order:stroke markers fill" d="m75.997 83.401v9.779h1.7907v-2.9972h0.6731c2.3241 0 3.4671-0.9398 3.4671-2.9591v-0.9017c0-2.0701-1.1049-2.921-3.4671-2.921zm1.778 5.0927v-3.4925h0.7112c1.3589 0 1.6637 0.4826 1.6637 1.4097v0.7239c0 0.9271-0.4191 1.3589-1.6891 1.3589z"/>
     <path style="paint-order:stroke markers fill" d="m83.34 83.401v9.779h1.7907v-2.9972h0.6731c2.3241 0 3.4671-0.9398 3.4671-2.9591v-0.9017c0-2.0701-1.1049-2.921-3.4671-2.921zm1.778 5.0927v-3.4925h0.7112c1.3589 0 1.6637 0.4826 1.6637 1.4097v0.7239c0 0.9271-0.4191 1.3589-1.6891 1.3589z"/>
    </g>
    <g aria-label="BAR" style="paint-order:stroke markers fill">
     <path style="paint-order:stroke markers fill" d="m32.074 93.18h3.2258c2.3622 0 3.4671-0.8382 3.4671-3.0353 0-1.3462-0.7747-2.2225-1.7907-2.4384 0.7747-0.5207 0.889-1.1176 0.889-1.7145 0-1.524-1.1176-2.5908-2.8829-2.5908h-2.9083zm1.7399-4.4069h1.4859c1.27 0 1.5875 0.4445 1.5875 1.4097 0 0.9271-0.2032 1.4097-1.5621 1.4097h-1.5113zm1.1684-3.8735c0.8636 0 1.0795 0.6223 1.0795 1.1176 0 0.6223-0.3429 1.143-1.0668 1.143h-1.1684v-2.2606z"/>
     <path style="paint-order:stroke markers fill" d="m43.585 83.414h-1.7399l-2.7051 9.7663h1.8034l0.508-1.7272h2.5019l0.4953 1.7272h1.8034zm-1.7018 6.3246 0.8128-3.6195 0.8128 3.6195z"/>
     <path style="paint-order:stroke markers fill" d="m53.645 93.18-2.1463-3.7211c1.1811-0.381 1.6891-1.1684 1.6891-2.6162v-0.508c0-2.0701-1.1049-2.9337-3.4671-2.9337h-2.4638v9.779h1.7526v-3.4417h0.6477l1.9431 3.4417zm-4.6482-5.0546v-3.1115h0.7493c1.3589 0 1.6002 0.4826 1.6002 1.4097v0.3302c0 0.9271-0.3556 1.3716-1.6256 1.3716z"/>
    </g>
   </g>
  </g>
 </g>
</svg>
